<?xml version="1.0" standalone="no"?>
<!DOCTYPE svg PUBLIC "-//W3C//DTD SVG 20010904//EN"
 "http://www.w3.org/TR/2001/REC-SVG-20010904/DTD/svg10.dtd">
<svg version="1.0" xmlns="http://www.w3.org/2000/svg"
 width="300.000000pt" height="300.000000pt" viewBox="0 0 300.000000 300.000000"
 preserveAspectRatio="xMidYMid meet">
<metadata>
Created by potrace 1.11, written by Peter Selinger 2001-2013
</metadata>
<g transform="translate(0.000000,300.000000) scale(0.100000,-0.100000)"
fill="#000000" stroke="none">
<path d="M0 1500 l0 -1500 1500 0 1500 0 0 1500 0 1500 -1500 0 -1500 0 0
-1500z m1272 1443 c14 -12 18 -31 18 -77 0 -84 22 -196 55 -286 16 -41 29 -76
31 -78 1 -2 31 -10 65 -18 172 -40 231 -74 227 -133 -3 -34 -2 -35 47 -49 122
-36 216 -98 253 -166 44 -84 56 -138 54 -257 -2 -183 -35 -244 -190 -350 -40
-27 -74 -49 -76 -49 -12 0 -176 -103 -176 -110 0 -4 24 -22 53 -39 28 -17 70
-44 92 -61 47 -35 136 -53 385 -75 234 -21 350 -34 400 -45 86 -18 215 -39
275 -45 95 -9 133 -48 99 -100 -17 -26 -20 -27 -98 -22 -45 3 -117 12 -161 21
-152 29 -330 55 -455 66 -69 6 -162 17 -208 24 -61 10 -85 10 -87 2 -2 -6 -6
-67 -7 -136 -4 -115 -6 -130 -35 -190 -17 -36 -60 -109 -96 -164 -58 -86 -65
-101 -55 -120 6 -11 50 -73 98 -136 98 -129 103 -140 90 -175 -17 -45 -67 -31
-108 31 -7 10 -35 51 -63 89 -27 39 -59 85 -71 103 -24 38 -27 38 -80 11 -35
-18 -54 -20 -127 -16 -47 2 -128 12 -179 21 -51 10 -99 16 -106 13 -12 -5
-129 -192 -192 -306 -24 -44 -36 -57 -58 -59 -36 -4 -56 14 -56 50 0 28 42
101 152 261 45 66 46 89 2 98 -52 10 -116 52 -151 97 -30 40 -33 50 -33 113 0
44 8 92 20 130 12 34 18 64 15 67 -19 19 -244 -135 -375 -256 -119 -109 -143
-126 -174 -118 -54 13 -51 80 6 120 12 8 40 32 62 53 69 65 148 128 220 177
67 46 102 66 241 141 39 21 87 54 108 74 45 42 99 120 94 135 -2 6 -37 14 -78
17 -179 16 -262 47 -348 130 -76 73 -91 111 -91 239 0 165 51 326 169 532 l32
56 -36 28 c-34 25 -105 106 -150 170 -38 53 -79 99 -166 184 -94 93 -109 113
-101 142 4 17 49 48 70 48 21 0 131 -95 195 -168 86 -97 203 -268 214 -313 5
-19 14 -34 20 -34 6 0 28 16 50 35 48 45 125 99 189 135 61 34 192 85 219 85
41 0 48 14 30 56 -38 88 -55 160 -61 259 -6 88 -4 108 10 130 19 29 60 34 88
8z m1049 -93 c10 -6 19 -21 19 -34 0 -28 -28 -43 -165 -86 -55 -18 -119 -41
-142 -51 -23 -10 -44 -19 -47 -19 -6 0 -154 -68 -251 -115 -90 -45 -127 -52
-148 -30 -14 13 -14 20 -4 36 18 30 475 249 519 249 8 0 18 4 24 8 5 4 34 15
64 24 30 10 62 19 70 22 25 8 40 6 61 -4z"/>
<path d="M1185 2369 c-46 -13 -172 -76 -224 -112 -65 -44 -159 -135 -189 -182
-93 -146 -162 -352 -162 -483 0 -116 31 -162 146 -218 58 -28 62 -29 266 -32
l207 -4 98 50 c95 48 160 83 253 134 25 14 61 34 80 44 84 45 183 119 207 155
24 36 26 48 26 152 1 104 -1 116 -27 170 -35 71 -87 105 -203 132 -43 9 -117
30 -166 46 -48 16 -107 29 -130 29 -32 0 -49 7 -70 26 -25 23 -28 31 -22 65 7
39 7 39 -27 38 -18 0 -47 -5 -63 -10z m279 -315 c10 -4 16 -18 16 -35 0 -25
-4 -29 -29 -29 -21 0 -30 6 -34 22 -6 21 7 48 23 48 5 0 15 -3 24 -6z m232
-75 c13 -22 5 -68 -18 -102 -93 -136 -320 -330 -446 -380 -56 -22 -127 -21
-177 3 -56 26 -66 36 -119 114 -36 52 -46 76 -44 100 3 27 7 31 32 31 24 0 36
-9 66 -53 70 -101 86 -112 155 -112 58 0 66 3 146 58 95 64 277 242 315 308
21 36 31 44 54 44 16 0 32 -5 36 -11z m-618 -35 c52 -36 4 -106 -61 -88 -22 7
-35 19 -42 38 -8 24 -6 31 14 47 28 23 59 24 89 3z"/>
<path d="M1330 1255 c-39 -20 -93 -35 -128 -35 -23 0 -42 -10 -73 -42 -39 -39
-109 -138 -109 -153 0 -4 -13 -25 -28 -48 -41 -60 -95 -212 -100 -279 -4 -54
-3 -59 27 -87 24 -23 50 -34 109 -45 42 -9 106 -23 142 -31 103 -23 190 -35
262 -35 57 0 71 4 97 26 17 14 31 31 31 38 0 7 16 28 36 47 19 18 61 75 92
124 l57 90 3 108 c2 60 1 119 -2 132 -3 13 -34 45 -69 71 -34 27 -71 58 -83
70 -54 56 -199 83 -264 49z m194 -73 c8 -13 -50 -65 -63 -58 -12 8 -15 49 -4
59 9 10 61 9 67 -1z"/>
</g>
</svg>
